<?xml version="1.0" standalone="no"?>
<!DOCTYPE svg PUBLIC "-//W3C//DTD SVG 20010904//EN"
 "http://www.w3.org/TR/2001/REC-SVG-20010904/DTD/svg10.dtd">
<svg version="1.0" xmlns="http://www.w3.org/2000/svg"
 width="700.000000pt" height="700.000000pt" viewBox="0 0 700.000000 700.000000"
 preserveAspectRatio="xMidYMid meet">
<metadata>
Created by potrace 1.14, written by Peter Selinger 2001-2017
</metadata>
<g transform="translate(0.000000,700.000000) scale(0.100000,-0.100000)"
fill="#000000" stroke="none">
<path d="M4515 5834 c-5 -1 -21 -5 -35 -8 -45 -10 -79 -51 -126 -152 -25 -54
-64 -137 -86 -184 -22 -47 -69 -148 -105 -225 -120 -258 -131 -279 -192 -409
-34 -70 -61 -130 -61 -131 0 -1 -27 -60 -60 -129 -33 -70 -60 -128 -60 -130 0
-2 -34 -74 -75 -160 -41 -86 -75 -158 -75 -160 0 -2 -27 -62 -61 -132 -75
-159 -95 -201 -254 -544 -37 -80 -72 -151 -77 -157 -6 -7 -7 -13 -3 -13 4 0 1
-10 -7 -22 -8 -13 -35 -68 -60 -123 -26 -55 -67 -145 -93 -200 -26 -55 -63
-133 -81 -172 -66 -141 -102 -219 -143 -307 -23 -49 -101 -215 -173 -370 -72
-154 -179 -384 -238 -511 -59 -126 -111 -244 -114 -262 -10 -45 23 -117 66
-143 44 -27 110 -26 156 2 28 17 45 43 85 127 27 58 76 162 108 230 33 68 59
125 59 127 0 2 31 69 70 150 38 80 70 148 70 149 0 1 24 54 54 116 29 63 81
173 114 244 33 72 78 168 100 215 22 47 88 189 147 315 59 127 122 262 140
300 18 39 62 133 98 210 35 77 88 189 116 249 28 59 51 110 51 111 0 2 29 63
64 137 35 73 91 192 124 263 33 72 78 168 100 215 22 47 85 182 140 300 55
118 125 268 156 334 31 65 56 119 56 121 0 2 49 106 141 300 23 50 43 92 43
95 1 3 16 35 33 71 17 36 34 81 37 99 6 43 -23 112 -57 135 -27 17 -76 33 -92
29z"/>
<path d="M2125 5234 c-30 -15 -63 -46 -101 -96 -22 -28 -63 -76 -200 -234 -52
-60 -163 -189 -238 -278 -22 -26 -46 -53 -51 -60 -11 -11 -231 -269 -270 -315
-11 -13 -25 -29 -30 -35 -6 -6 -23 -27 -38 -47 -33 -44 -39 -114 -13 -154 15
-23 238 -286 381 -450 29 -33 65 -76 81 -95 16 -19 31 -37 34 -40 7 -7 64 -73
121 -141 26 -29 92 -107 147 -172 56 -64 107 -126 114 -136 41 -58 142 -79
203 -41 56 35 83 127 54 183 -10 19 -91 119 -168 207 -12 14 -30 34 -39 45
-10 11 -101 117 -202 236 -102 118 -205 239 -230 269 -25 29 -50 58 -55 64
-62 67 -124 145 -118 148 4 1 75 82 158 178 82 96 159 186 171 200 132 147
478 560 485 578 27 69 -3 152 -66 182 -49 24 -89 25 -130 4z"/>
<path d="M4790 4080 c-19 -3 -47 -14 -62 -24 -51 -34 -75 -124 -47 -179 10
-19 107 -137 190 -232 15 -16 73 -84 129 -150 56 -66 123 -145 149 -175 26
-30 80 -93 120 -140 81 -94 93 -108 169 -196 28 -33 52 -64 52 -67 0 -4 -180
-217 -401 -474 -221 -258 -406 -479 -411 -493 -45 -112 72 -234 185 -191 32
13 68 48 163 161 43 52 88 104 99 116 11 11 29 32 40 45 89 107 122 146 135
159 8 8 37 42 65 75 27 33 62 74 76 90 38 44 107 124 159 185 25 29 50 58 55
64 6 6 46 53 89 104 70 82 79 98 84 141 5 56 -12 98 -61 151 -17 19 -57 64
-87 100 -30 36 -57 67 -60 70 -4 3 -57 66 -120 140 -63 74 -117 137 -120 140
-4 3 -57 66 -120 140 -63 74 -116 137 -120 140 -3 3 -56 65 -119 138 -62 73
-121 137 -131 142 -39 21 -66 26 -100 20z"/>
</g>
</svg>
